<?xml version="1.0" standalone="no"?>
<!DOCTYPE svg PUBLIC "-//W3C//DTD SVG 20010904//EN"
 "http://www.w3.org/TR/2001/REC-SVG-20010904/DTD/svg10.dtd">
<svg version="1.0" xmlns="http://www.w3.org/2000/svg"
 width="180.000000pt" height="180.000000pt" viewBox="0 0 180.000000 180.000000"
 preserveAspectRatio="xMidYMid meet">
<metadata>
Created by potrace 1.11, written by Peter Selinger 2001-2013
</metadata>
<g transform="translate(0.000000,180.000000) scale(0.100000,-0.100000)"
fill="#000000" stroke="none">
<path d="M1374 1732 c-22 -17 -32 -39 -40 -89 -2 -16 -6 -43 -10 -61 -3 -18
-18 -52 -34 -75 -15 -23 -44 -68 -64 -100 -40 -63 -61 -76 -145 -84 -30 -2
-83 -15 -118 -28 -34 -13 -82 -27 -105 -31 -49 -8 -517 -14 -535 -7 -7 3 -22
20 -34 39 -53 86 48 200 118 135 23 -22 95 -49 127 -47 18 1 21 7 20 46 -2 75
-9 95 -47 147 -29 40 -46 53 -80 62 -24 7 -50 12 -58 11 -23 -4 -39 0 -38 8 4
21 -6 20 -59 -7 -71 -37 -156 -116 -176 -166 -9 -21 -16 -53 -16 -72 0 -26 -5
-36 -19 -40 -18 -5 -15 -14 35 -112 30 -58 69 -120 85 -137 l31 -32 -26 -41
c-49 -76 -68 -140 -62 -201 3 -30 8 -83 12 -117 5 -45 2 -76 -11 -116 -16 -51
-32 -73 -97 -131 l-27 -24 3 -153 c4 -163 8 -185 35 -194 73 -23 151 -5 151
33 0 22 -32 58 -60 67 -39 12 -20 116 33 175 15 17 32 28 37 25 6 -4 10 -37
10 -74 0 -96 28 -121 125 -111 50 5 61 56 19 89 -14 11 -29 32 -33 48 -15 54
6 92 92 173 44 41 106 100 137 130 87 85 93 86 192 39 84 -41 166 -67 226 -71
45 -3 58 -22 72 -98 7 -36 19 -92 27 -125 8 -33 17 -78 20 -100 2 -22 11 -57
18 -77 9 -23 13 -60 11 -94 -4 -49 -1 -60 20 -81 21 -21 31 -23 78 -19 58 4
96 20 96 38 0 16 32 37 57 38 54 0 29 95 -28 107 -37 7 -54 69 -53 193 1 84 6
110 43 219 23 68 50 136 60 150 28 41 57 118 81 217 16 70 27 94 43 104 12 6
38 31 57 55 39 48 48 54 103 62 21 3 46 6 55 8 9 2 20 4 24 4 5 1 17 21 29 46
29 61 20 98 -32 127 -32 18 -39 27 -39 52 0 17 -9 42 -19 55 -15 20 -17 37
-13 115 3 70 1 94 -9 103 -22 17 -55 -2 -96 -56 -46 -61 -81 -66 -98 -15 -15
46 -43 84 -63 84 -9 0 -27 -8 -38 -18z m42 -14 c4 -7 3 -8 -5 -4 -6 4 -14 0
-17 -8 -3 -9 -11 -16 -17 -16 -5 0 -2 9 8 20 21 23 22 24 31 8z m244 -2 c0 -2
-9 -6 -20 -9 -11 -3 -18 -1 -14 4 5 9 34 13 34 5z m-216 -22 c3 -8 2 -12 -4
-9 -6 3 -10 10 -10 16 0 14 7 11 14 -7z m147 -37 c-10 -9 -11 -8 -5 6 3 10 9
15 12 12 3 -3 0 -11 -7 -18z m-228 -12 c-3 -9 -8 -14 -10 -11 -3 3 -2 9 2 15
9 16 15 13 8 -4z m-1059 -13 c3 -5 -1 -9 -9 -9 -8 0 -12 4 -9 9 3 4 7 8 9 8 2
0 6 -4 9 -8z m161 -31 c3 -5 2 -12 -3 -15 -5 -3 -9 1 -9 9 0 17 3 19 12 6z
m898 -28 c-3 -7 -6 -13 -8 -13 -2 0 -5 6 -8 13 -3 8 1 14 8 14 7 0 11 -6 8
-14z m-850 -50 c-3 -7 -6 -13 -8 -13 -2 0 -5 6 -8 13 -3 8 1 14 8 14 7 0 11
-6 8 -14z m1156 -7 c9 -11 9 -16 -1 -22 -7 -4 -10 -4 -6 1 4 4 3 14 -3 22 -6
7 -9 13 -6 13 2 0 10 -6 16 -14z m-1519 -10 c0 -2 -7 -7 -16 -10 -8 -3 -12 -2
-9 4 6 10 25 14 25 6z m378 -37 c-3 -8 -7 -3 -11 10 -4 17 -3 21 5 13 5 -5 8
-16 6 -23z m-410 -19 c-7 -10 -14 -17 -17 -15 -4 4 18 35 25 35 2 0 -1 -9 -8
-20z m163 -23 l-24 -22 19 27 c10 14 21 24 23 22 3 -3 -6 -15 -18 -27z m184 3
c3 -6 -1 -7 -9 -4 -18 7 -21 14 -7 14 6 0 13 -4 16 -10z m70 -20 c3 -6 -1 -7
-9 -4 -18 7 -21 14 -7 14 6 0 13 -4 16 -10z m1225 -35 c11 -13 10 -14 -4 -9
-9 3 -16 10 -16 15 0 13 6 11 20 -6z m-1660 -35 c0 -5 -2 -10 -4 -10 -3 0 -8
5 -11 10 -3 6 -1 10 4 10 6 0 11 -4 11 -10z m1676 -5 c-1 -8 -5 -17 -8 -21 -5
-4 -4 16 1 34 3 9 9 -1 7 -13z m-1668 -40 c-3 -3 -9 2 -12 12 -6 14 -5 15 5 6
7 -7 10 -15 7 -18z m1027 5 c-3 -5 -12 -10 -18 -10 -7 0 -6 4 3 10 19 12 23
12 15 0z m-85 -4 c0 -3 -4 -8 -10 -11 -5 -3 -10 -1 -10 4 0 6 5 11 10 11 6 0
10 -2 10 -4z m706 -13 c-2 -9 -9 -19 -17 -21 -11 -3 -11 -1 1 7 8 6 11 11 7
11 -5 0 -5 5 -2 10 9 15 14 12 11 -7z m-782 -16 c-3 -8 -12 -14 -21 -14 -13 0
-13 2 3 14 10 7 19 13 21 13 1 0 0 -6 -3 -13z m731 -7 c3 -5 1 -10 -4 -10 -6
0 -11 5 -11 10 0 6 2 10 4 10 3 0 8 -4 11 -10z m-1564 -17 c13 -16 12 -17 -3
-4 -10 7 -18 15 -18 17 0 8 8 3 21 -13z m264 -13 c3 -6 -1 -7 -9 -4 -18 7 -21
14 -7 14 6 0 13 -4 16 -10z m245 0 c8 -5 11 -10 5 -10 -5 0 -17 5 -25 10 -8 5
-10 10 -5 10 6 0 17 -5 25 -10z m45 -8 c-3 -3 -11 0 -18 7 -9 10 -8 11 6 5 10
-3 15 -9 12 -12z m74 8 c-6 -5 -18 -6 -26 -3 -19 8 -16 11 13 11 17 0 22 -3
13 -8z m809 -20 c-7 -10 -14 -17 -17 -15 -4 4 18 35 25 35 2 0 -1 -9 -8 -20z
m-1410 -25 c-3 -3 -9 2 -12 12 -6 14 -5 15 5 6 7 -7 10 -15 7 -18z m27 -35
c10 -11 16 -20 13 -20 -3 0 -13 9 -23 20 -10 11 -16 20 -13 20 3 0 13 -9 23
-20z m1258 -115 c-3 -9 -8 -14 -10 -11 -3 3 -2 9 2 15 9 16 15 13 8 -4z
m-1282 -78 c-10 -9 -11 -8 -5 6 3 10 9 15 12 12 3 -3 0 -11 -7 -18z m1260 -20
c-10 -9 -11 -8 -5 6 3 10 9 15 12 12 3 -3 0 -11 -7 -18z m-18 -47 c-3 -12 -8
-19 -11 -16 -5 6 5 36 12 36 2 0 2 -9 -1 -20z m-20 -45 c-3 -9 -8 -14 -10 -11
-3 3 -2 9 2 15 9 16 15 13 8 -4z m-1228 -44 c3 -5 2 -12 -3 -15 -5 -3 -9 1 -9
9 0 17 3 19 12 6z m15 -81 c0 -5 -5 -10 -11 -10 -5 0 -7 5 -4 10 3 6 8 10 11
10 2 0 4 -4 4 -10z m356 -38 c-17 -16 -18 -16 -5 5 7 12 15 20 18 17 3 -2 -3
-12 -13 -22z m289 18 c3 -6 -1 -7 -9 -4 -18 7 -21 14 -7 14 6 0 13 -4 16 -10z
m-325 -50 c-24 -15 -36 -11 -14 4 10 8 21 12 24 10 2 -3 -2 -9 -10 -14z m801
-23 c-10 -9 -11 -8 -5 6 3 10 9 15 12 12 3 -3 0 -11 -7 -18z m-231 -47 c0 -5
-2 -10 -4 -10 -3 0 -8 5 -11 10 -3 6 -1 10 4 10 6 0 11 -4 11 -10z m-733 -86
c-3 -3 -12 -4 -19 -1 -8 3 -5 6 6 6 11 1 17 -2 13 -5z m-292 -33 c-3 -6 -11
-11 -16 -11 -5 0 -4 6 3 14 14 16 24 13 13 -3z m248 -51 c-3 -12 -8 -19 -11
-16 -5 6 5 36 12 36 2 0 2 -9 -1 -20z m-148 -9 c-3 -6 -11 -11 -16 -11 -5 0
-4 6 3 14 14 16 24 13 13 -3z m953 -6 c-3 -3 -9 2 -12 12 -6 14 -5 15 5 6 7
-7 10 -15 7 -18z m-1065 -25 c3 -11 2 -22 -2 -24 -4 -3 -8 6 -9 20 -2 29 4 31
11 4z m264 -12 c-3 -8 -6 -5 -6 6 -1 11 2 17 5 13 3 -3 4 -12 1 -19z m-200
-40 c-3 -8 -6 -5 -6 6 -1 11 2 17 5 13 3 -3 4 -12 1 -19z m1170 7 c0 -8 -4
-12 -9 -9 -5 3 -6 10 -3 15 9 13 12 11 12 -6z m-910 -59 c-7 -18 -27 -22 -27
-5 0 5 5 7 10 4 13 -8 13 17 0 33 -5 7 -3 6 6 -2 9 -8 14 -22 11 -30z m-77
-13 c0 -7 -39 17 -46 28 -3 6 5 3 20 -6 14 -10 26 -19 26 -22z m848 2 c-3 -3
-9 2 -12 12 -6 14 -5 15 5 6 7 -7 10 -15 7 -18z m156 -1 c3 -8 2 -12 -4 -9 -6
3 -10 10 -10 16 0 14 7 11 14 -7z m-1247 -26 c-3 -8 -6 -5 -6 6 -1 11 2 17 5
13 3 -3 4 -12 1 -19z m1108 3 c3 -5 2 -12 -3 -15 -5 -3 -9 1 -9 9 0 17 3 19
12 6z m-1111 -42 c-3 -5 2 -22 11 -37 17 -26 17 -26 0 -10 -18 17 -30 73 -14
62 5 -3 7 -10 3 -15z m128 -51 c-6 -6 -9 0 -9 18 0 23 1 24 9 10 7 -12 7 -21
0 -28z m1214 31 c3 -6 1 -16 -6 -22 -10 -9 -11 -9 -5 2 4 8 2 17 -6 22 -9 6
-10 9 -2 9 6 0 15 -5 19 -11z m-26 -29 c0 -5 -5 -10 -11 -10 -5 0 -7 5 -4 10
3 6 8 10 11 10 2 0 4 -4 4 -10z m-1220 -14 c-4 -4 -16 -4 -26 2 -16 9 -14 10
8 9 15 -1 23 -6 18 -11z m1020 -27 c0 -6 -4 -7 -10 -4 -5 3 -10 11 -10 16 0 6
5 7 10 4 6 -3 10 -11 10 -16z m140 -13 c0 -3 -4 -8 -10 -11 -5 -3 -10 -1 -10
4 0 6 5 11 10 11 6 0 10 -2 10 -4z"/>
</g>
</svg>
